<svg version="1.0" xmlns="http://www.w3.org/2000/svg" xmlns:xlink="http://www.w3.org/1999/xlink" width="100%"
    height="100%" viewBox="0 0 340.000000 250.000000" preserveAspectRatio="xMidYMid meet"
    color-interpolation-filters="sRGB" style="margin: auto;">
    <g fill="#333" transform="translate(47.55000305175781,95.46575355529785)">
        <g transform="translate(0,0)">
            <g>
                <rect fill="#333" fill-opacity="0" stroke-width="2" x="0" y="0" width="60" height="59.06848991405534">
                </rect> <svg x="0" y="0" width="60" height="59.06848991405534" filtersec="colorsb8201352788"><svg
                        xmlns="http://www.w3.org/2000/svg"
                        viewBox="0.4385022521018982 -0.000009216904800268821 101.5615005493164 99.98497772216797">
                        <path
                            d="M69.3 59.41l-9.89 9.89L51 77.73 30.46 98.26A6 6 0 0 1 22 89.83L42.56 69.3 51 60.88l9.9-9.9zM102 24.28a6 6 0 0 1-1.75 4.21L77.72 51l-8.42-8.44 22.5-22.5a6 6 0 0 1 10.2 4.22z"
                            fill="#0059cc"></path>
                        <path
                            d="M83.64 6a5.94 5.94 0 0 1-1.74 4.21L41.08 51l-8.42-8.42 9.9-9.89L51 24.24 73.48 1.75A6 6 0 0 1 83.64 6zM32.66 59.41L12.13 79.93a6 6 0 0 1-8.42-8.42L24.24 51z"
                            fill="#00dac7"></path>
                        <path
                            d="M51 24.24l-8.42 8.43-22.5-22.5A6 6 0 0 1 24.28 0a5.89 5.89 0 0 1 4.2 1.75zM98.25 79.93a5.94 5.94 0 0 1-8.42 0L51 41.09l8.42-8.42 9.9 9.89 8.4 8.44 20.53 20.51a6 6 0 0 1 0 8.42z"
                            fill="#00baec"></path>
                        <path
                            d="M51 60.88l-8.44 8.42L1.74 28.49a6 6 0 0 1 8.43-8.43l22.49 22.5L41.08 51zM79.93 98.26a6 6 0 0 1-8.42 0L51 77.73l8.42-8.43 20.51 20.53a6 6 0 0 1 0 8.43z"
                            fill="#00abd8"></path>
                    </svg></svg>
                <!---->
            </g>
        </g>
        <g transform="translate(67,21.83424663543701)">
            <g data-gra="path-name" fill-rule="" class="tp-name iconsvg-namesvg">
                <g transform="scale(1)">
                    <g>
                        <path
                            d="M1.46 0L4.34 0 4.34-5.29 7.7-5.29 10.51 0 13.76 0 10.27-5.78C12.09-6.68 12.9-8.65 12.9-10.25 12.9-13.27 11.02-14.98 7.64-14.98L1.46-14.98ZM4.34-7.68L4.34-12.46 7.32-12.46C9.25-12.46 10.19-11.66 10.19-10.19 10.19-8.6 9.07-7.68 7.34-7.68ZM26.24-12.18L26.24-14.98 15.15-14.98 15.15-12.18ZM26.24-6.16L26.24-8.82 15.15-8.82 15.15-6.16ZM15.15 0L26.24 0 26.24-2.82 15.15-2.82ZM36.68-14.98L33.02-14.98 27.65 0 30.77 0 34.75-11.88 34.97-11.88 39.23 0 42.57 0ZM50.44 0.21C54.7 0.21 57.01-2.29 57.5-5.39L54.57-5.39C54.08-3.53 52.56-2.31 50.36-2.31 47.42-2.31 45.56-4.9 45.56-7.7 45.56-10.66 47.64-12.65 50.31-12.65 52.86-12.65 54.19-11.21 54.61-9.44L57.5-9.44C57.08-13.12 54.19-15.19 50.12-15.19 45.56-15.19 42.74-11.75 42.74-7.49 42.74-3.25 45.33 0.21 50.44 0.21ZM58.3-14.98L58.3-12.18 70.19-12.18 70.19-14.98ZM62.81-10.27L62.81 0 65.7 0 65.7-10.27ZM78.22 0L81.15 0 81.15-6.08 88.51-6.08 88.51-8.67 81.15-8.67 81.15-12.18 89.26-12.18 89.26-14.98 78.22-14.98ZM97.61-14.98L93.95-14.98 88.58 0 91.7 0 95.68-11.88 95.9-11.88 100.15 0 103.49 0ZM105.06 0L111.22 0C115.82 0 117.1-1.8 117.1-4.17 117.1-6.36 115.07-7.58 112.63-7.68L112.63-7.79C114.49-8 115.78-9.14 115.78-11.15 115.78-13.25 114.81-14.98 110.64-14.98L105.06-14.98 105.06-12.56 110.32-12.56C112.22-12.56 113.04-12.13 113.04-10.83 113.04-9.29 111.84-8.97 110.21-8.97L105.06-8.97 105.06-6.36 110.49-6.36C112.61-6.36 114.04-5.82 114.04-4.32 114.04-2.82 112.95-2.44 110.53-2.44L105.06-2.44ZM118.88 0L121.77 0 121.77-5.29 125.13-5.29 127.93 0 131.19 0 127.7-5.78C129.52-6.68 130.33-8.65 130.33-10.25 130.33-13.27 128.45-14.98 125.06-14.98L118.88-14.98 118.88-12.46 124.74-12.46C126.67-12.46 127.61-11.66 127.61-10.19 127.61-8.6 126.5-7.68 124.77-7.68L118.88-7.68ZM135.66-12.67L135.66-14.98 132.75-14.98 132.75-12.67ZM132.75 0L135.64 0 135.64-10.7 132.75-10.7ZM145.59 0.21C149.85 0.21 152.16-2.29 152.65-5.39L149.72-5.39C149.23-3.53 147.71-2.31 145.5-2.31 142.57-2.31 140.71-4.9 140.71-7.7 140.71-10.66 142.78-12.65 145.46-12.65 148.01-12.65 149.33-11.21 149.76-9.44L152.65-9.44C152.22-13.12 149.33-15.19 145.27-15.19 140.71-15.19 137.88-11.75 137.88-7.49 137.88-3.25 140.47 0.21 145.59 0.21ZM165.4-4.88L165.4-14.98 162.52-14.98 162.52-4.88C162.73-4.86 165.4-4.88 165.4-4.88ZM159.52 0.21L159.5-2.5C157.27-2.5 156.44-3.96 156.44-5.84L153.7-5.84C153.7-2.48 155.09 0.21 159.52 0.21ZM173.17-12.86C175.12-12.86 176.47-11.77 176.47-10.06L179.36-10.06C179.36-13.42 176.98-15.19 173.15-15.19ZM167.4-11.17C167.4-5.71 176.47-7.68 176.47-4.15 176.47-2.93 175.21-2.14 173.41-2.14 171.33-2.14 170.11-3.21 170.11-4.94L167.18-4.94C167.18-1.39 169.68 0.21 173.47 0.21 176.94 0.21 179.36-1.52 179.36-4.15 179.36-9.59 170.2-7.94 170.2-11.13Z"
                            transform="translate(-1.4600000381469727, 15.1899995803833)"></path>
                    </g>
                    <!---->
                    <!---->
                    <!---->
                    <!---->
                    <!---->
                    <!---->
                    <!---->
                </g>
            </g>
            <!---->
        </g>
    </g>
</svg>
